Coordinates
version=1
nRows=27
nColumns=12
inDegrees=yes

Units are S.I. units (second, meters, Newtons, ...)
Angles are in degrees

endheader
time	SC_y	SC_z	SC_x	AC_y	AC_z	AC_x	GH_y	GH_z	GH_yy	EL_x	PS_y
       0.0              -28.42           5.29          8.727           32.8         -15.15          7.874          90.51          28.15          161.7          130.0          83.74
   0.03888              -28.42          5.292          8.727           32.8         -15.15          7.874          90.52          28.16          161.7          130.0          83.75
   0.07775              -28.42          5.294          8.728           32.8         -15.15          7.874          90.52          28.16          161.7          130.0          83.76
    0.1166              -28.43          5.296          8.728           32.8         -15.15          7.875          90.52          28.17          161.7          130.0          83.77
    0.1555              -28.43          5.299          8.729           32.8         -15.15          7.875          90.52          28.17          161.7          129.9          83.79
    0.1944              -28.43          5.301           8.73           32.8         -15.15          7.876          90.52          28.18          161.7          129.9           83.8
    0.2333              -28.43          5.304           8.73           32.8         -15.15          7.876          90.52          28.19          161.7          129.9          83.82
    0.2721              -28.43          5.307          8.731           32.8         -15.15          7.877          90.52           28.2          161.7          129.9          83.83
     0.311              -28.44           5.31          8.732           32.8         -15.15          7.877          90.52           28.2          161.7          129.9          83.85
    0.3499              -28.44          5.314          8.733           32.8         -15.15          7.878          90.52          28.21          161.7          129.8          83.87
    0.3888              -28.44          5.318          8.734          32.81         -15.15          7.878          90.52          28.22          161.7          129.8          83.89
    0.4276              -28.44          5.322          8.735          32.81         -15.15          7.879          90.52          28.23          161.7          129.8          83.91
    0.4665              -28.45          5.326          8.736          32.81         -15.15           7.88          90.53          28.24          161.7          129.8          83.93
    0.5054              -28.45           5.33          8.737          32.81         -15.16          7.881          90.53          28.26          161.7          129.7          83.95
    0.5443              -28.45          5.336          8.738          32.81         -15.16          7.882          90.53          28.27          161.7          129.7          83.98
    0.5831              -28.46          5.341          8.739          32.81         -15.16          7.882          90.53          28.28          161.7          129.6          84.01
     0.622              -28.46          5.347          8.741          32.82         -15.16          7.884          90.53           28.3          161.7          129.6          84.04
    0.6609              -28.47          5.353          8.742          32.82         -15.16          7.885          90.54          28.31          161.7          129.6          84.07
    0.6998              -28.47           5.36          8.744          32.82         -15.16          7.886          90.54          28.33          161.7          129.5          84.11
    0.7386              -28.48          5.368          8.746          32.82         -15.16          7.887          90.54          28.35          161.7          129.5          84.15
    0.7775              -28.49          5.377          8.748          32.83         -15.17          7.889          90.54          28.38          161.7          129.4           84.2
    0.8164              -28.49          5.386           8.75          32.83         -15.17           7.89          90.55           28.4          161.7          129.3          84.25
    0.8553               -28.5          5.396          8.753          32.83         -15.17          7.892          90.55          28.43          161.7          129.3           84.3
    0.8941              -28.51          5.407          8.756          32.84         -15.17          7.894          90.55          28.46          161.7          129.2          84.36
     0.933              -28.52           5.42          8.759          32.84         -15.17          7.896          90.56          28.49          161.7          129.1          84.43
    0.9719              -28.53          5.434          8.762          32.85         -15.18          7.899          90.56          28.52          161.7          129.0           84.5
     1.011              -28.54           5.45          8.766          32.85         -15.18          7.902          90.57          28.57          161.7          128.9          84.58
